<svg xmlns="http://www.w3.org/2000/svg" xmlns:xlink="http://www.w3.org/1999/xlink" width="559" zoomAndPan="magnify" viewBox="0 0 419.25 297.75" height="396" preserveAspectRatio="xMidYMid meet" version="1.0"><defs><clipPath id="04fd0a08a7"><path d="M 317 128 L 327.3125 128 L 327.3125 149 L 317 149 Z M 317 128 " clip-rule="nonzero"/></clipPath><clipPath id="960766ffc3"><path d="M 287 119.070312 L 318 119.070312 L 318 139 L 287 139 Z M 287 119.070312 " clip-rule="nonzero"/></clipPath><clipPath id="ee02e18109"><path d="M 268 119.070312 L 288 119.070312 L 288 129 L 268 129 Z M 268 119.070312 " clip-rule="nonzero"/></clipPath><clipPath id="f35bcc79b2"><path d="M 287 148 L 318 148 L 318 178.214844 L 287 178.214844 Z M 287 148 " clip-rule="nonzero"/></clipPath><clipPath id="60a798c515"><path d="M 174 119.070312 L 205 119.070312 L 205 159 L 174 159 Z M 174 119.070312 " clip-rule="nonzero"/></clipPath><clipPath id="200dad23e2"><path d="M 204 168 L 215 168 L 215 178.214844 L 204 178.214844 Z M 204 168 " clip-rule="nonzero"/></clipPath><clipPath id="30790f2afd"><path d="M 214 119.070312 L 235 119.070312 L 235 129 L 214 129 Z M 214 119.070312 " clip-rule="nonzero"/></clipPath><clipPath id="ff5fa27efc"><path d="M 121 168 L 131 168 L 131 178.214844 L 121 178.214844 Z M 121 168 " clip-rule="nonzero"/></clipPath><clipPath id="06ae541acd"><path d="M 101 119.070312 L 122 119.070312 L 122 129 L 101 129 Z M 101 119.070312 " clip-rule="nonzero"/></clipPath><clipPath id="93caedb62a"><path d="M 91.484375 128 L 102 128 L 102 149 L 91.484375 149 Z M 91.484375 128 " clip-rule="nonzero"/></clipPath><clipPath id="88046957fd"><path d="M 130 119.070312 L 161 119.070312 L 161 159 L 130 159 Z M 130 119.070312 " clip-rule="nonzero"/></clipPath></defs><path fill="#ff8788" d="M 96.863281 133.457031 L 101.34375 148.621094 L 121.058594 168.347656 L 125.304688 172.304688 L 130.917969 168.347656 L 150.679688 148.621094 L 155.582031 140.992188 L 150.679688 128.9375 L 141.199219 124.886719 L 130.917969 128.9375 L 126.671875 131.480469 L 121.058594 128.9375 L 108.464844 124.886719 L 101.34375 128.9375 Z M 96.863281 133.457031 " fill-opacity="1" fill-rule="nonzero"/><path fill="#ff8788" d="M 180.25 133.457031 L 184.730469 148.621094 L 204.449219 168.347656 L 208.691406 172.304688 L 214.351562 168.347656 L 234.066406 148.621094 L 238.972656 140.992188 L 234.066406 128.9375 L 224.585938 124.886719 L 214.351562 128.9375 L 210.105469 131.480469 L 204.449219 128.9375 L 191.855469 124.886719 L 184.730469 128.9375 Z M 180.25 133.457031 " fill-opacity="1" fill-rule="nonzero"/><path fill="#ff8788" d="M 263.640625 133.457031 L 268.121094 148.621094 L 287.882812 168.347656 L 292.128906 172.304688 L 297.742188 168.347656 L 317.457031 148.621094 L 322.363281 140.992188 L 317.457031 128.9375 L 308.023438 124.886719 L 297.742188 128.9375 L 293.496094 131.480469 L 287.882812 128.9375 L 275.242188 124.886719 L 268.121094 128.9375 Z M 263.640625 133.457031 " fill-opacity="1" fill-rule="nonzero"/><path fill="#ffffff" d="M 297.742188 138.777344 L 297.742188 158.460938 L 303.777344 163.40625 L 307.597656 158.460938 L 317.457031 148.621094 L 322.363281 138.777344 L 317.457031 128.9375 L 303.96875 124.886719 L 297.742188 128.9375 Z M 297.742188 138.777344 " fill-opacity="1" fill-rule="nonzero"/><path fill="#ffdbda" d="M 101.34375 128.9375 L 111.199219 128.9375 L 111.199219 138.777344 L 101.34375 138.777344 Z M 101.34375 128.9375 " fill-opacity="1" fill-rule="nonzero"/><path fill="#ffdbda" d="M 184.730469 128.9375 L 194.589844 128.9375 L 194.589844 138.777344 L 184.730469 138.777344 Z M 184.730469 128.9375 " fill-opacity="1" fill-rule="nonzero"/><path fill="#ffdbda" d="M 268.121094 128.9375 L 277.980469 128.9375 L 277.980469 138.777344 L 268.121094 138.777344 Z M 268.121094 128.9375 " fill-opacity="1" fill-rule="nonzero"/><g clip-path="url(#04fd0a08a7)"><path fill="#e63c3c" d="M 317.457031 128.9375 L 317.457031 148.621094 L 327.3125 148.621094 L 327.3125 128.9375 Z M 317.457031 128.9375 " fill-opacity="1" fill-rule="nonzero"/></g><g clip-path="url(#960766ffc3)"><path fill="#e63c3c" d="M 297.742188 138.777344 L 297.742188 128.9375 L 317.457031 128.9375 L 317.457031 119.097656 L 297.742188 119.097656 L 297.742188 128.9375 L 287.882812 128.9375 L 287.882812 138.777344 Z M 297.742188 138.777344 " fill-opacity="1" fill-rule="nonzero"/></g><path fill="#e63c3c" d="M 268.121094 148.621094 L 277.980469 148.621094 L 277.980469 158.460938 L 268.121094 158.460938 Z M 268.121094 148.621094 " fill-opacity="1" fill-rule="nonzero"/><path fill="#e63c3c" d="M 277.980469 158.460938 L 287.835938 158.460938 L 287.835938 168.300781 L 277.980469 168.300781 Z M 277.980469 158.460938 " fill-opacity="1" fill-rule="nonzero"/><g clip-path="url(#ee02e18109)"><path fill="#e63c3c" d="M 287.882812 128.9375 L 287.882812 119.097656 L 268.121094 119.097656 L 268.121094 128.9375 Z M 287.882812 128.9375 " fill-opacity="1" fill-rule="nonzero"/></g><path fill="#e63c3c" d="M 268.121094 138.777344 L 268.121094 128.9375 L 258.261719 128.9375 L 258.261719 148.621094 L 268.121094 148.621094 Z M 268.121094 138.777344 " fill-opacity="1" fill-rule="nonzero"/><g clip-path="url(#f35bcc79b2)"><path fill="#e63c3c" d="M 307.597656 158.460938 L 297.742188 158.460938 L 297.742188 168.347656 L 287.882812 168.347656 L 287.882812 178.191406 L 297.742188 178.191406 L 297.742188 168.347656 L 307.597656 168.347656 L 307.597656 158.460938 L 317.457031 158.460938 L 317.457031 148.621094 L 307.597656 148.621094 Z M 307.597656 158.460938 " fill-opacity="1" fill-rule="nonzero"/></g><path fill="#e63c3c" d="M 204.449219 128.9375 L 214.304688 128.9375 L 214.304688 138.777344 L 204.449219 138.777344 Z M 204.449219 128.9375 " fill-opacity="1" fill-rule="nonzero"/><g clip-path="url(#60a798c515)"><path fill="#e63c3c" d="M 184.730469 148.621094 L 184.730469 128.9375 L 204.449219 128.9375 L 204.449219 119.097656 L 184.730469 119.097656 L 184.730469 128.9375 L 174.875 128.9375 L 174.875 148.621094 L 184.730469 148.621094 L 184.730469 158.460938 L 194.589844 158.460938 L 194.589844 148.621094 Z M 184.730469 148.621094 " fill-opacity="1" fill-rule="nonzero"/></g><path fill="#e63c3c" d="M 194.589844 158.460938 L 204.449219 158.460938 L 204.449219 168.300781 L 194.589844 168.300781 Z M 194.589844 158.460938 " fill-opacity="1" fill-rule="nonzero"/><g clip-path="url(#200dad23e2)"><path fill="#e63c3c" d="M 204.449219 168.347656 L 214.304688 168.347656 L 214.304688 178.191406 L 204.449219 178.191406 Z M 204.449219 168.347656 " fill-opacity="1" fill-rule="nonzero"/></g><path fill="#e63c3c" d="M 224.210938 158.460938 L 214.351562 158.460938 L 214.351562 168.347656 L 224.210938 168.347656 L 224.210938 158.460938 L 234.066406 158.460938 L 234.066406 148.621094 L 224.210938 148.621094 Z M 224.210938 158.460938 " fill-opacity="1" fill-rule="nonzero"/><g clip-path="url(#30790f2afd)"><path fill="#e63c3c" d="M 224.210938 128.9375 L 234.066406 128.9375 L 234.066406 119.097656 L 214.351562 119.097656 L 214.351562 128.9375 Z M 224.210938 128.9375 " fill-opacity="1" fill-rule="nonzero"/></g><path fill="#e63c3c" d="M 234.066406 138.777344 L 234.066406 148.621094 L 243.925781 148.621094 L 243.925781 128.9375 L 234.066406 128.9375 Z M 234.066406 138.777344 " fill-opacity="1" fill-rule="nonzero"/><path fill="#e63c3c" d="M 121.058594 128.9375 L 130.917969 128.9375 L 130.917969 138.777344 L 121.058594 138.777344 Z M 121.058594 128.9375 " fill-opacity="1" fill-rule="nonzero"/><path fill="#e63c3c" d="M 111.199219 158.460938 L 111.199219 148.621094 L 101.34375 148.621094 L 101.34375 158.460938 L 111.199219 158.460938 L 111.199219 168.347656 L 121.058594 168.347656 L 121.058594 158.460938 Z M 111.199219 158.460938 " fill-opacity="1" fill-rule="nonzero"/><g clip-path="url(#ff5fa27efc)"><path fill="#e63c3c" d="M 121.058594 168.347656 L 130.917969 168.347656 L 130.917969 178.191406 L 121.058594 178.191406 Z M 121.058594 168.347656 " fill-opacity="1" fill-rule="nonzero"/></g><g clip-path="url(#06ae541acd)"><path fill="#e63c3c" d="M 111.199219 128.9375 L 121.058594 128.9375 L 121.058594 119.097656 L 101.34375 119.097656 L 101.34375 128.9375 Z M 111.199219 128.9375 " fill-opacity="1" fill-rule="nonzero"/></g><g clip-path="url(#93caedb62a)"><path fill="#e63c3c" d="M 101.34375 138.777344 L 101.34375 128.9375 L 91.484375 128.9375 L 91.484375 148.621094 L 101.34375 148.621094 Z M 101.34375 138.777344 " fill-opacity="1" fill-rule="nonzero"/></g><path fill="#e63c3c" d="M 130.917969 158.460938 L 140.773438 158.460938 L 140.773438 168.300781 L 130.917969 168.300781 Z M 130.917969 158.460938 " fill-opacity="1" fill-rule="nonzero"/><g clip-path="url(#88046957fd)"><path fill="#e63c3c" d="M 150.679688 119.097656 L 130.917969 119.097656 L 130.917969 128.9375 L 150.679688 128.9375 L 150.679688 148.621094 L 140.820312 148.621094 L 140.820312 158.460938 L 150.679688 158.460938 L 150.679688 148.621094 L 160.535156 148.621094 L 160.535156 128.9375 L 150.679688 128.9375 Z M 150.679688 119.097656 " fill-opacity="1" fill-rule="nonzero"/></g></svg>