<svg xmlns="http://www.w3.org/2000/svg" xmlns:xlink="http://www.w3.org/1999/xlink" width="559" zoomAndPan="magnify" viewBox="0 0 419.25 297.75" height="396" preserveAspectRatio="xMidYMid meet" version="1.0"><defs><clipPath id="3c0148904f"><path d="M 103.953125 43.257812 L 170 43.257812 L 170 97 L 103.953125 97 Z M 103.953125 43.257812 " clip-rule="nonzero"/></clipPath><clipPath id="0cc9c0b636"><path d="M 249 96 L 315.074219 96 L 315.074219 149 L 249 149 Z M 249 96 " clip-rule="nonzero"/></clipPath><clipPath id="ab5df3cef4"><path d="M 143 201 L 210 201 L 210 254.378906 L 143 254.378906 Z M 143 201 " clip-rule="nonzero"/></clipPath></defs><g clip-path="url(#3c0148904f)"><path fill="#f9b3b5" d="M 143.539062 96.039062 L 143.539062 82.84375 L 156.734375 82.84375 L 156.734375 69.648438 L 169.929688 69.648438 L 169.929688 56.453125 L 156.734375 56.453125 L 156.734375 43.257812 L 143.539062 43.257812 L 143.539062 56.453125 L 130.34375 56.453125 L 130.34375 43.257812 L 117.148438 43.257812 L 117.148438 56.453125 L 103.953125 56.453125 L 103.953125 69.648438 L 117.148438 69.648438 L 117.148438 82.84375 L 130.34375 82.84375 L 130.34375 96.039062 Z M 143.539062 96.039062 " fill-opacity="1" fill-rule="nonzero"/></g><g clip-path="url(#0cc9c0b636)"><path fill="#f9b3b5" d="M 301.878906 109.234375 L 301.878906 96.039062 L 288.683594 96.039062 L 288.683594 109.234375 L 275.488281 109.234375 L 275.488281 96.039062 L 262.292969 96.039062 L 262.292969 109.234375 L 249.097656 109.234375 L 249.097656 122.429688 L 262.292969 122.429688 L 262.292969 135.625 L 275.488281 135.625 L 275.488281 148.820312 L 288.683594 148.820312 L 288.683594 135.625 L 301.878906 135.625 L 301.878906 122.429688 L 315.074219 122.429688 L 315.074219 109.234375 Z M 301.878906 109.234375 " fill-opacity="1" fill-rule="nonzero"/></g><g clip-path="url(#ab5df3cef4)"><path fill="#f9b3b5" d="M 196.320312 201.597656 L 183.125 201.597656 L 183.125 214.792969 L 169.929688 214.792969 L 169.929688 201.597656 L 156.734375 201.597656 L 156.734375 214.792969 L 143.539062 214.792969 L 143.539062 227.988281 L 156.734375 227.988281 L 156.734375 241.183594 L 169.929688 241.183594 L 169.929688 254.378906 L 183.125 254.378906 L 183.125 241.183594 L 196.320312 241.183594 L 196.320312 227.988281 L 209.515625 227.988281 L 209.515625 214.792969 L 196.320312 214.792969 Z M 196.320312 201.597656 " fill-opacity="1" fill-rule="nonzero"/></g></svg>