

<svg width="32" height="32" viewBox="0 0 32 32" fill="none" xmlns="http://www.w3.org/2000/svg">
<path d="M4.66665 30.3333H27.3333C27.88 30.3333 28.3333 29.88 28.3333 29.3333C28.3333 28.7867 27.88 28.3333 27.3333 28.3333H4.66665C4.11998 28.3333 3.66665 28.7867 3.66665 29.3333C3.66665 29.88 4.11998 30.3333 4.66665 30.3333Z" fill="white"/>
<path d="M6.66675 24.3333C6.92008 24.3333 7.17341 24.24 7.37341 24.04L26.0401 5.37333C26.4267 4.98667 26.4267 4.34666 26.0401 3.96C25.6534 3.57333 25.0134 3.57333 24.6267 3.96L5.96008 22.6267C5.57341 23.0133 5.57341 23.6533 5.96008 24.04C6.16008 24.24 6.41341 24.3333 6.66675 24.3333Z" fill="white"/>
<path d="M25.3333 19.36C25.88 19.36 26.3333 18.9067 26.3333 18.36V4.66667C26.3333 4.12001 25.88 3.66667 25.3333 3.66667H11.64C11.0933 3.66667 10.64 4.12001 10.64 4.66667C10.64 5.21334 11.0933 5.66667 11.64 5.66667H24.3333V18.36C24.3333 18.9067 24.7866 19.36 25.3333 19.36Z" fill="white"/>
</svg>

