<svg xmlns="http://www.w3.org/2000/svg" xmlns:xlink="http://www.w3.org/1999/xlink" width="559" zoomAndPan="magnify" viewBox="0 0 419.25 297.749993" height="396" preserveAspectRatio="xMidYMid meet" version="1.0"><defs><clipPath id="232a4af919"><path d="M 78.363281 17.667969 L 340.394531 17.667969 L 340.394531 279.699219 L 78.363281 279.699219 Z M 78.363281 17.667969 " clip-rule="nonzero"/></clipPath></defs><g clip-path="url(#232a4af919)"><path fill="#ffffff" d="M 329.023438 166.082031 L 329.023438 143.335938 L 340.394531 143.335938 L 340.394531 63.15625 L 329.023438 63.15625 L 329.023438 40.410156 L 283.585938 40.410156 L 283.585938 17.667969 L 226.097656 17.667969 L 226.097656 40.410156 L 192.660156 40.410156 L 192.660156 17.667969 L 135.171875 17.667969 L 135.171875 40.410156 L 89.734375 40.410156 L 89.734375 63.15625 L 78.363281 63.15625 L 78.363281 143.335938 L 89.734375 143.335938 L 89.734375 166.082031 L 101.105469 166.082031 L 101.105469 199.464844 L 89.734375 199.464844 L 89.734375 222.210938 L 78.363281 222.210938 L 78.363281 256.953125 L 89.734375 256.953125 L 89.734375 279.699219 L 169.96875 279.699219 L 169.96875 256.953125 L 248.789062 256.953125 L 248.789062 279.699219 L 329.023438 279.699219 L 329.023438 256.953125 L 340.394531 256.953125 L 340.394531 222.210938 L 329.023438 222.210938 L 329.023438 199.464844 L 317.648438 199.464844 L 317.648438 166.082031 Z M 329.023438 166.082031 " fill-opacity="1" fill-rule="nonzero"/></g><path fill="#000000" d="M 322.996094 69.128906 L 322.996094 46.4375 L 277.558594 46.4375 L 277.558594 23.695312 L 232.121094 23.695312 L 232.121094 46.4375 L 186.632812 46.4375 L 186.632812 23.695312 L 141.199219 23.695312 L 141.199219 46.4375 L 95.761719 46.4375 L 95.761719 69.128906 L 84.390625 69.128906 L 84.390625 137.3125 L 95.761719 137.3125 L 95.761719 160.054688 L 107.132812 160.054688 L 107.132812 205.492188 L 95.761719 205.492188 L 95.761719 228.234375 L 84.390625 228.234375 L 84.390625 250.929688 L 95.761719 250.929688 L 95.761719 273.671875 L 163.941406 273.671875 L 163.941406 250.929688 L 254.8125 250.929688 L 254.8125 273.671875 L 322.996094 273.671875 L 322.996094 250.929688 L 334.367188 250.929688 L 334.367188 228.234375 L 322.996094 228.234375 L 322.996094 205.492188 L 311.621094 205.492188 L 311.621094 160.054688 L 322.996094 160.054688 L 322.996094 137.3125 L 334.367188 137.3125 L 334.367188 69.128906 Z M 322.996094 69.128906 " fill-opacity="1" fill-rule="nonzero"/><path fill="#77c914" d="M 254.8125 69.128906 L 243.441406 69.128906 L 243.441406 46.4375 L 266.1875 46.4375 L 266.1875 69.183594 Z M 300.304688 69.128906 L 288.929688 69.128906 L 288.929688 114.617188 L 266.1875 114.617188 L 266.1875 91.875 L 243.441406 91.875 L 243.441406 69.128906 L 220.699219 69.128906 L 220.699219 91.875 L 197.953125 91.875 L 197.953125 69.128906 L 175.210938 69.128906 L 175.210938 91.875 L 152.464844 91.875 L 152.464844 114.617188 L 129.71875 114.617188 L 129.71875 69.128906 L 106.976562 69.128906 L 106.976562 137.363281 L 129.71875 137.363281 L 129.71875 228.289062 L 106.976562 228.289062 L 106.976562 251.03125 L 152.464844 251.03125 L 152.464844 205.542969 L 175.210938 205.542969 L 175.210938 228.289062 L 197.953125 228.289062 L 197.953125 205.542969 L 220.699219 205.542969 L 220.699219 228.289062 L 243.441406 228.289062 L 243.441406 205.542969 L 266.1875 205.542969 L 266.1875 251.03125 L 311.675781 251.03125 L 311.675781 228.289062 L 288.929688 228.289062 L 288.929688 137.363281 L 311.675781 137.363281 L 311.675781 69.128906 Z M 163.941406 69.128906 L 175.3125 69.128906 L 175.3125 46.4375 L 152.570312 46.4375 L 152.570312 69.183594 Z M 163.941406 69.128906 " fill-opacity="1" fill-rule="nonzero"/><path fill="#7304d7" d="M 254.8125 160.054688 L 254.8125 182.746094 L 232.070312 182.746094 L 232.070312 137.3125 L 254.8125 137.3125 Z M 186.632812 160.054688 L 186.632812 137.3125 L 163.890625 137.3125 L 163.890625 182.746094 L 186.632812 182.746094 Z M 186.632812 160.054688 " fill-opacity="1" fill-rule="nonzero"/></svg>